<svg xmlns="http://www.w3.org/2000/svg" viewBox="0 0 520 300" role="img" aria-hidden="true">
<style>.bg{fill:#fffdf8}.skin{fill:#ffc2a8}.hair{fill:#9c9781}.line{stroke:#07213c;stroke-width:8;stroke-linecap:round;stroke-linejoin:round;fill:none}.table{fill:#9d6034;stroke:#07213c;stroke-width:7}.gold{fill:#ffd75c}.paper{fill:#fffdf8}.accent{fill:#f37745}.blue{fill:#f5fbff}.green{fill:#b7b089}.water{fill:#9ed8ef;stroke:#07213c;stroke-width:6}.house{fill:#fff7ef;stroke:#07213c;stroke-width:7}.roof{fill:#a76439;stroke:#07213c;stroke-width:7}</style>
<rect class="bg" width="520" height="300"/><path class="house" d="M145 148v102h210V148"/><path class="roof" d="M116 155l134-95 139 95"/><rect class="paper" stroke="#07213c" stroke-width="7" x="188" y="156" width="52" height="94" rx="5"/><rect class="gold" stroke="#07213c" stroke-width="7" x="268" y="174" width="54" height="52" rx="6"/><circle class="skin" cx="390" cy="94" r="31"/><path class="hair" stroke="#07213c" stroke-width="7" d="M356 98c4-43 56-56 82-19-17-3-27 2-34 18-17-7-30-6-48 1z"/><path class="blue" stroke="#07213c" stroke-width="7" d="M341 231c1-63 23-104 52-104s58 40 62 104z"/><path class="line" d="M360 159l-46 36M423 157l39 39"/><path class="gold" stroke="#07213c" stroke-width="6" d="M318 192l35 12-35 12z"/><path class="line" d="M130 252h270"/></svg>